<svg version="1.1" xmlns="http://www.w3.org/2000/svg" viewBox="0 0 366.3442933258207 374.33141632341335"
     stroke="#000000" width="366.3442933258207" height="374.33141632341335">
    <g stroke-linecap="round"
       transform="translate(30.883361694835912 122.74038397089134) rotate(0 15.879576004721798 9.174866136061496)">
        <path d="M17 0.21 C20.34 0.42, 25.18 1.49, 27.72 2.75 C30.26 4.02, 31.99 5.98, 32.23 7.78 C32.47 9.58, 31.32 11.74, 29.15 13.54 C26.98 15.34, 22.67 17.94, 19.19 18.58 C15.72 19.23, 11.26 18.26, 8.3 17.39 C5.34 16.52, 2.83 15.1, 1.43 13.36 C0.04 11.62, -1.1 9.02, -0.06 6.96 C0.98 4.89, 4.23 2.14, 7.65 0.97 C11.06 -0.2, 17.55 -0.19, 20.43 -0.06 C23.3 0.06, 24.73 1.34, 24.91 1.72 M17.42 -0.14 C20.76 -0.26, 26.62 1.1, 28.78 2.47 C30.94 3.85, 30.61 5.98, 30.39 8.14 C30.18 10.29, 29.32 13.69, 27.5 15.42 C25.67 17.15, 22.64 18.22, 19.44 18.51 C16.24 18.79, 11.5 17.89, 8.31 17.12 C5.12 16.35, 1.56 15.45, 0.31 13.89 C-0.94 12.34, -0.32 9.82, 0.8 7.81 C1.93 5.81, 4.27 2.95, 7.04 1.84 C9.82 0.74, 15.67 1.47, 17.46 1.17 C19.25 0.87, 17.67 -0.07, 17.78 0.04"
              stroke-width="1" fill="none"></path>
    </g>
    <g stroke-linecap="round">
        <g transform="translate(47.82157609987257 143.913151977187) rotate(0 -0.40883214218399644 25.01093767665384)">
            <path d="M0.9 0.22 C0.64 8.42, -0.41 41.28, -0.75 49.75 M-0.09 -0.71 C-0.58 7.56, -1.38 41.87, -1.72 50.73"
                  stroke-width="1" fill="none"></path>
        </g>
    </g>
    <g stroke-linecap="round">
        <g transform="translate(11.122111555626589 232.13301867008613) rotate(0 19.03960452534068 -18.92678003058245)">
            <path d="M0.22 -0.04 C6.3 -6.49, 30.7 -31.7, 37.05 -37.81 M-1.12 -1.11 C5.27 -7.47, 32.74 -30.22, 39.2 -36.49"
                  stroke-width="1" fill="none"></path>
        </g>
    </g>
    <g stroke-linecap="round">
        <g transform="translate(87.34407637829122 230.7215008029998) rotate(0 -20.919457737964876 -18.755923925592583)">
            <path d="M-0.04 -1.06 C-6.96 -7.18, -34.05 -30.56, -40.64 -36.49 M-1.52 0.99 C-8.72 -5.53, -35.39 -32.45, -41.8 -38.5"
                  stroke-width="1" fill="none"></path>
        </g>
    </g>
    <g stroke-linecap="round">
        <g transform="translate(49.93885290050207 162.96864318285384) rotate(0 15.804847401715847 4.441237224492966)">
            <path d="M-1.06 -0.41 C4.35 1.36, 27.08 8.73, 32.67 10.55 M0.58 -1.67 C5.83 -0.25, 26.64 7.09, 31.83 8.78"
                  stroke-width="1" fill="none"></path>
        </g>
    </g>
    <g stroke-linecap="round">
        <g transform="translate(20.29697769168797 186.25868798977945) rotate(0 13.187404041391687 -11.167060595854537)">
            <path d="M-0.41 0.21 C4.06 -3.37, 22.26 -18.62, 26.78 -22.54 M1.58 -0.73 C5.95 -4.01, 22.07 -17.37, 26.19 -20.98"
                  stroke-width="1" fill="none"></path>
        </g>
    </g>
    <g stroke-linecap="round"
       transform="translate(180.02911585159222 253.40676870802054) rotate(0 15.879576004721798 9.174866136061496)">
        <path d="M23.37 0.44 C26.6 1.28, 30.25 3.63, 31.48 5.48 C32.71 7.33, 32.03 9.65, 30.75 11.54 C29.47 13.44, 26.66 15.76, 23.8 16.85 C20.94 17.94, 16.85 18.34, 13.58 18.07 C10.31 17.8, 6.32 16.62, 4.17 15.22 C2.03 13.82, 0.82 11.66, 0.72 9.67 C0.61 7.68, 1.75 4.75, 3.55 3.3 C5.36 1.85, 7.77 1.15, 11.55 0.97 C15.32 0.8, 23.44 1.65, 26.2 2.22 C28.97 2.8, 28.31 4.42, 28.12 4.43 M14.74 0.02 C17.85 -0.35, 21.08 -0.88, 23.82 0.22 C26.56 1.33, 29.99 4.48, 31.19 6.64 C32.38 8.81, 32.57 11.48, 30.99 13.22 C29.4 14.95, 24.93 16.39, 21.67 17.05 C18.41 17.71, 14.34 17.36, 11.43 17.16 C8.53 16.97, 6.13 17.51, 4.23 15.86 C2.33 14.21, 0 9.25, 0.04 7.26 C0.08 5.27, 2.35 5.15, 4.47 3.92 C6.59 2.69, 11.03 0.28, 12.75 -0.12 C14.46 -0.52, 14.45 1.32, 14.75 1.52"
              stroke-width="1" fill="none"></path>
    </g>
    <g stroke-linecap="round">
        <g transform="translate(196.96733025662866 274.5795367143164) rotate(0 -0.24000861545516727 25.908632280901543)">
            <path d="M0.89 1.13 C0.48 9.42, -1.2 41.85, -1.42 50.02 M-0.1 0.68 C-0.21 9.07, 1.07 42.73, 0.92 51.14"
                  stroke-width="1" fill="none"></path>
        </g>
    </g>
    <g stroke-linecap="round">
        <g transform="translate(161.58154999616022 362.7994034072153) rotate(0 19.937299129588496 -18.75231608481556)">
            <path d="M1.13 -0.71 C7.3 -7.04, 31.26 -31.16, 37.31 -37.08 M0.27 1.53 C6.79 -5.25, 33.6 -32.45, 39.61 -39.04"
                  stroke-width="1" fill="none"></path>
        </g>
    </g>
    <g stroke-linecap="round">
        <g transform="translate(236.4898305350473 361.387885540129) rotate(0 -19.783336701326448 -17.98740979867614)">
            <path d="M-0.71 -0.8 C-7.51 -7.22, -33.52 -31.37, -39.91 -37.37 M1.12 1.4 C-5.89 -4.36, -33.96 -30.02, -40.69 -36.19"
                  stroke-width="1" fill="none"></path>
        </g>
    </g>
    <g stroke-linecap="round">
        <g transform="translate(199.08460705725815 293.63502791998326) rotate(0 16.676216202643786 5.249649046290415)">
            <path d="M-0.8 0.32 C4.31 2.28, 26.27 9.52, 31.79 11.05 M0.98 -0.55 C6.39 1.17, 29.07 7.68, 34.15 9.55"
                  stroke-width="1" fill="none"></path>
        </g>
    </g>
    <g stroke-linecap="round">
        <g transform="translate(169.44273184844428 316.9250727269091) rotate(0 13.159109390036974 -10.568176136795728)">
            <path d="M0.32 -0.67 C4.99 -4.33, 23.05 -19.01, 27.29 -22.72 M-0.97 1.59 C3.7 -1.8, 22.66 -17.35, 26.95 -21.26"
                  stroke-width="1" fill="none"></path>
        </g>
    </g>
    <g stroke-linecap="round"
       transform="translate(298.8253452063077 64.59156973363793) rotate(0 15.879576004721798 9.174866136061496)">
        <path d="M14.17 0.55 C17.59 0.01, 22.43 -0.55, 25.35 0.54 C28.26 1.63, 30.81 5.11, 31.66 7.08 C32.5 9.04, 31.77 10.59, 30.42 12.33 C29.07 14.08, 26.68 16.58, 23.55 17.54 C20.41 18.5, 15.12 18.63, 11.63 18.1 C8.13 17.56, 4.59 15.78, 2.57 14.33 C0.54 12.88, -0.92 11.4, -0.53 9.4 C-0.13 7.4, 2.03 3.83, 4.92 2.31 C7.8 0.79, 14.62 0.6, 16.79 0.27 C18.96 -0.06, 17.92 0.34, 17.94 0.32 M23 0.69 C26.14 1.45, 29.63 4.13, 31.14 5.79 C32.66 7.44, 32.99 8.91, 32.08 10.62 C31.17 12.33, 28.41 14.73, 25.7 16.05 C22.98 17.37, 19.18 18.77, 15.81 18.55 C12.45 18.33, 8.07 15.98, 5.49 14.73 C2.91 13.48, 0.75 13.06, 0.32 11.04 C-0.1 9.03, 1.06 4.57, 2.94 2.63 C4.81 0.7, 8.18 -0.33, 11.57 -0.56 C14.97 -0.79, 21.61 0.82, 23.29 1.27 C24.97 1.72, 22.09 2, 21.66 2.12"
              stroke-width="1" fill="none"></path>
    </g>
    <g stroke-linecap="round">
        <g transform="translate(315.7635596113446 85.76433773993381) rotate(0 0.17411571710204043 24.800397483711663)">
            <path d="M-0.34 -0.29 C-0.4 8.03, -1.43 42.47, -1.46 51.08 M1.67 -1.48 C2.11 6.97, 1.33 40.63, 0.86 49.1"
                  stroke-width="1" fill="none"></path>
        </g>
    </g>
    <g stroke-linecap="round">
        <g transform="translate(279.0640950670986 173.9842044328327) rotate(0 19.04680972656979 -18.858809216930013)">
            <path d="M-0.29 -0.75 C5.92 -6.89, 31.88 -31.23, 38.38 -37.18 M1.76 1.47 C7.73 -5.02, 31.5 -32.56, 37.57 -39.19"
                  stroke-width="1" fill="none"></path>
        </g>
    </g>
    <g stroke-linecap="round">
        <g transform="translate(355.28605988976324 172.57268656574638) rotate(0 -19.889829833440785 -18.833492911482153)">
            <path d="M-0.75 0.27 C-7.36 -5.7, -33.58 -29.77, -40.01 -36.12 M1.06 -0.63 C-5.66 -6.94, -34.07 -31.86, -40.84 -37.94"
                  stroke-width="1" fill="none"></path>
        </g>
    </g>
    <g stroke-linecap="round">
        <g transform="translate(317.8808364119741 104.81982894560065) rotate(0 15.998955645379738 5.060206200707512)">
            <path d="M0.27 0.22 C5.83 2.15, 27.87 9.1, 33.05 10.83 M-1.05 -0.71 C4.43 0.97, 26.62 7.65, 32.4 9.2"
                  stroke-width="1" fill="none"></path>
        </g>
    </g>
    <g stroke-linecap="round">
        <g transform="translate(288.23896120315976 128.10987375252648) rotate(0 12.969666544453958 -11.573313391312468)">
            <path d="M0.22 0.58 C4.86 -3.42, 22.63 -19.98, 27.06 -23.73 M-1.12 -0.16 C3.5 -4.08, 22.02 -18.83, 26.61 -22.79"
                  stroke-width="1" fill="none"></path>
        </g>
    </g>
    <g transform="translate(311.45411407893357 10) rotate(0 7.5 17.5)">
        <text x="7.5" y="25" font-family="Virgil, Segoe UI Emoji" font-size="28px" fill="#000000" text-anchor="middle"
              style="white-space: pre;" direction="ltr">?
        </text>
    </g>
    <g transform="translate(188.72423474558468 209.5497988889149) rotate(0 7.5 17.5)">
        <text x="7.5" y="25" font-family="Virgil, Segoe UI Emoji" font-size="28px" fill="#000000" text-anchor="middle"
              style="white-space: pre;" direction="ltr">?
        </text>
    </g>
    <g transform="translate(40.81899554898473 75.80569961539368) rotate(0 7.5 17.5)">
        <text x="7.5" y="25" font-family="Virgil, Segoe UI Emoji" font-size="28px" fill="#000000" text-anchor="middle"
              style="white-space: pre;" direction="ltr">?
        </text>
    </g>
    <g stroke-linecap="round">
        <g transform="translate(281.19107428405664 289.98819854704243) rotate(0 29.248263163665456 -45.09283538457316)">
            <path d="M0.06 0.07 C9.15 -4.92, 45.83 -14.46, 55.26 -29.23 C64.7 -43.99, 56.7 -78.63, 56.66 -88.53 M-1.37 -0.93 C7.49 -5.87, 44.6 -13.28, 54.21 -28.17 C63.82 -43.05, 56.22 -79.86, 56.31 -90.26"
                  stroke-width="1" fill="none"></path>
        </g>
        <g transform="translate(281.19107428405664 289.98819854704243) rotate(0 29.248263163665456 -45.09283538457316)">
            <path d="M69.1 -63.4 C62.76 -71.47, 61.67 -84, 58.14 -89 M69.14 -62.16 C65.63 -70.21, 62.22 -77.03, 57.27 -90.51"
                  stroke-width="1" fill="none"></path>
        </g>
        <g transform="translate(281.19107428405664 289.98819854704243) rotate(0 29.248263163665456 -45.09283538457316)">
            <path d="M48.65 -61.62 C49.63 -70.34, 55.87 -83.51, 58.14 -89 M48.7 -60.38 C50.08 -68.68, 51.57 -75.92, 57.27 -90.51"
                  stroke-width="1" fill="none"></path>
        </g>
    </g>
    <g stroke-linecap="round">
        <g transform="translate(267.0299343609779 55.542659820516974) rotate(0 -78.09301815450806 11.45692648841225)">
            <path d="M0.51 0.79 C-15.79 -2.59, -71.23 -27.84, -97.29 -20.68 C-123.36 -13.53, -146.16 33.04, -155.88 43.72 M-0.68 0.16 C-17.23 -3.06, -72.51 -27.13, -98.51 -19.68 C-124.52 -12.23, -147.25 34.23, -156.7 44.87"
                  stroke-width="1" fill="none"></path>
        </g>
        <g transform="translate(267.0299343609779 55.542659820516974) rotate(0 -78.09301815450806 11.45692648841225)">
            <path d="M-147.89 14.95 C-153.58 25.67, -155.02 36.17, -157.81 43.64 M-149.73 14.87 C-151.19 25.89, -152.78 33.57, -157.67 44.78"
                  stroke-width="1" fill="none"></path>
        </g>
        <g transform="translate(267.0299343609779 55.542659820516974) rotate(0 -78.09301815450806 11.45692648841225)">
            <path d="M-130.97 26.56 C-142.44 33.36, -149.71 39.86, -157.81 43.64 M-132.81 26.48 C-139.7 33.95, -146.63 37.97, -157.67 44.78"
                  stroke-width="1" fill="none"></path>
        </g>
    </g>
    <g stroke-linecap="round">
        <g transform="translate(42.811885578898455 258.51899871797855) rotate(0 43.269122148301676 42.79289654577087)">
            <path d="M-0.11 -0.97 C2.67 9.35, 1.55 46.85, 16.26 61.29 C30.97 75.73, 76.33 81.33, 88.17 85.68 M-1.63 1.14 C1.56 11.71, 3.66 48.61, 18.5 62.85 C33.34 77.08, 76 82.8, 87.43 86.55"
                  stroke-width="1" fill="none"></path>
        </g>
        <g transform="translate(42.811885578898455 258.51899871797855) rotate(0 43.269122148301676 42.79289654577087)">
            <path d="M56.02 88.5 C65.58 89.21, 71.96 86.8, 88.92 87.32 M57.68 90.65 C68.31 88.09, 81.19 86.52, 86.71 86.51"
                  stroke-width="1" fill="none"></path>
        </g>
        <g transform="translate(42.811885578898455 258.51899871797855) rotate(0 43.269122148301676 42.79289654577087)">
            <path d="M60.78 68.53 C68.98 74.51, 74.11 77.37, 88.92 87.32 M62.44 70.69 C71.38 75.9, 82.39 82.13, 86.71 86.51"
                  stroke-width="1" fill="none"></path>
        </g>
    </g>
    <g stroke-linecap="round"
       transform="translate(187.21694850310723 294.60873252514807) rotate(0 5.036409330592733 6.338928985056441)">
        <path d="M3.81 -0.39 C4.97 -0.54, 7.83 0.57, 8.88 1.45 C9.92 2.34, 10.12 3.5, 10.1 4.92 C10.07 6.35, 9.3 8.86, 8.7 9.99 C8.1 11.12, 7.28 11.22, 6.49 11.69 C5.71 12.15, 5.05 13.03, 4 12.79 C2.95 12.54, 0.86 11.54, 0.17 10.22 C-0.51 8.9, -0.34 6.45, -0.08 4.88 C0.17 3.31, 0.63 1.62, 1.69 0.82 C2.74 0.01, 5.54 0.1, 6.25 0.05 C6.96 0, 6.04 0.49, 5.97 0.49 M7.55 1.88 C8.13 2.26, 8.19 1.54, 8.42 2.45 C8.64 3.37, 8.79 5.91, 8.9 7.38 C9.01 8.86, 9.85 10.25, 9.1 11.3 C8.34 12.35, 5.45 13.73, 4.35 13.68 C3.24 13.64, 3.41 12.25, 2.44 11.05 C1.47 9.86, -1.24 7.73, -1.48 6.52 C-1.73 5.31, 0.09 4.77, 0.98 3.8 C1.86 2.82, 2.74 1.22, 3.84 0.67 C4.93 0.11, 6.88 0.59, 7.54 0.48 C8.19 0.36, 7.65 -0.1, 7.75 -0.03"
              stroke-width="1" fill="none"></path>
    </g>
    <g stroke-linecap="round"
       transform="translate(194.85839714262715 293.21937822705354) rotate(0 5.210078617854606 6.5125982723182005)">
        <path d="M4.62 0.3 C5.68 0.23, 6.84 1.07, 7.91 1.6 C8.97 2.12, 10.74 2.31, 11.01 3.47 C11.27 4.64, 10.12 7.05, 9.5 8.61 C8.88 10.16, 8.06 11.95, 7.27 12.82 C6.48 13.69, 5.85 14.34, 4.76 13.82 C3.67 13.29, 1.58 10.86, 0.74 9.68 C-0.1 8.51, -0.42 7.89, -0.27 6.78 C-0.11 5.67, 0.88 4.04, 1.65 3.01 C2.42 1.98, 3.81 1, 4.34 0.58 C4.87 0.15, 4.79 0.39, 4.83 0.45 M3.67 -0.52 C4.52 -1.21, 6.12 -0.47, 6.91 0.26 C7.71 0.98, 7.94 2.7, 8.46 3.84 C8.98 4.97, 9.96 6, 10.04 7.05 C10.12 8.09, 9.48 9.29, 8.93 10.12 C8.38 10.94, 7.78 11.75, 6.73 11.99 C5.68 12.23, 3.54 12.16, 2.62 11.57 C1.7 10.97, 1.73 9.88, 1.21 8.42 C0.68 6.96, -0.99 4.01, -0.53 2.82 C-0.07 1.63, 3.37 1.56, 3.96 1.29 C4.55 1.01, 3.25 0.97, 3.01 1.15"
              stroke-width="1" fill="none"></path>
    </g>
</svg>
