<svg version="1.1" xmlns="http://www.w3.org/2000/svg" viewBox="0 0 179.6453862530218 172.41824947731266"
     fill="none" stroke="#000000" width="179.6453862530218" height="172.41824947731266">
    <g stroke-linecap="round" transform="translate(80.8519570612998 10) rotate(0 17.01641955475384 12.501492686795757)">
        <path d="M19.57 1.16 C22.99 1.27, 27.97 1.67, 30.24 3.57 C32.5 5.48, 33.28 9.71, 33.17 12.58 C33.05 15.46, 31.64 18.65, 29.52 20.8 C27.41 22.95, 23.97 24.94, 20.45 25.47 C16.94 26, 11.62 25.46, 8.43 23.97 C5.25 22.47, 2.72 19.24, 1.35 16.51 C-0.02 13.77, -0.86 9.95, 0.22 7.55 C1.29 5.16, 4.23 3.42, 7.79 2.14 C11.34 0.85, 19.31 0.07, 21.55 -0.15 C23.78 -0.36, 21.35 0.44, 21.2 0.85 M21.04 -1.1 C24.51 -1.05, 28.9 1.81, 31.09 4.15 C33.28 6.49, 34.31 10.25, 34.16 12.94 C34.01 15.62, 32.72 18.44, 30.18 20.23 C27.63 22.03, 22.67 23.28, 18.88 23.71 C15.1 24.14, 10.29 23.93, 7.49 22.83 C4.68 21.74, 3.03 19.41, 2.06 17.15 C1.1 14.89, 0.62 12.01, 1.69 9.28 C2.76 6.55, 5.21 2.38, 8.47 0.8 C11.73 -0.79, 19.17 -0.18, 21.25 -0.23 C23.33 -0.28, 21.04 0.04, 20.95 0.47"
              stroke-width="1"></path>
    </g>
    <g stroke-linecap="round">
        <g transform="translate(98.86986930284957 37.00895612077488) rotate(0 -0.4160882274712776 35.8940605782671)">
            <path d="M-1.12 0.42 C-1.22 12.34, -0.53 60.07, -0.59 72.2 M0.49 -0.41 C0.28 11.07, -0.83 58.21, -1.32 70.18"
                  stroke-width="1"></path>
        </g>
    </g>
    <g stroke-linecap="round">
        <g transform="translate(46.869869302849565 162.00895612077488) rotate(0 26.687293186266857 -26.52524324357512)">
            <path d="M0.42 0.41 C9.34 -8.31, 45.07 -44.6, 54.2 -53.46 M-0.83 -0.42 C7.9 -8.88, 44.05 -43.68, 53.36 -52.16"
                  stroke-width="1"></path>
        </g>
    </g>
    <g stroke-linecap="round">
        <g transform="translate(154.86986930284957 160.00895612077488) rotate(0 -29.119958184356847 -26.07151708715128)">
            <path d="M0.41 0.2 C-8.98 -8.34, -47.93 -41.96, -57.46 -50.83 M-0.83 -0.74 C-10.32 -9.62, -49.22 -43.75, -58.65 -52.34"
                  stroke-width="1"></path>
        </g>
    </g>
    <g stroke-linecap="round">
        <g transform="translate(101.86986930284957 64.00895612077488) rotate(0 23.006218549092296 6.245583234424714)">
            <path d="M0.2 -0.46 C7.99 1.84, 39.71 12, 47.17 14.24 M-1.15 -1.75 C6.54 0.14, 38.76 9.66, 46.83 12.24"
                  stroke-width="1"></path>
        </g>
    </g>
    <g stroke-linecap="round">
        <g transform="translate(59.869869302849565 97.00895612077488) rotate(0 18.389077416062378 -15.944049254059792)">
            <path d="M-0.46 1.17 C5.68 -4.38, 31.17 -27.55, 37.24 -33.06 M1.5 0.73 C7.46 -4.71, 30.28 -26.87, 36.41 -32.07"
                  stroke-width="1"></path>
        </g>
    </g>
    <g stroke-linecap="round"
       transform="translate(86.90316899962409 65.99939958191521) rotate(0 7.47760969806302 6.979102384858777)">
        <path d="M9.04 0.36 C10.45 0.79, 12.72 2.31, 13.77 3.53 C14.82 4.75, 15.35 6.25, 15.35 7.68 C15.36 9.11, 15.11 11.01, 13.8 12.13 C12.49 13.24, 9.29 14.26, 7.49 14.39 C5.69 14.52, 4.19 13.77, 3.01 12.92 C1.82 12.08, 0.84 10.83, 0.37 9.32 C-0.09 7.81, -0.28 5.35, 0.21 3.86 C0.7 2.36, 1.78 0.83, 3.31 0.36 C4.83 -0.1, 8.17 1, 9.35 1.08 C10.53 1.16, 10.23 0.92, 10.39 0.85 M6.31 0.16 C7.74 -0.04, 10.3 1.09, 11.42 1.58 C12.54 2.08, 12.43 1.91, 13.02 3.14 C13.62 4.37, 15.16 7.17, 14.99 8.98 C14.83 10.79, 13.31 13.12, 12.03 14.01 C10.76 14.9, 8.91 14.76, 7.35 14.33 C5.78 13.89, 3.93 12.67, 2.63 11.4 C1.34 10.13, -0.23 8.33, -0.41 6.71 C-0.6 5.08, 0.37 2.78, 1.54 1.65 C2.72 0.52, 5.94 0.12, 6.65 -0.05 C7.35 -0.23, 5.9 0.69, 5.77 0.61"
              stroke-width="1"></path>
    </g>
    <g stroke-linecap="round"
       transform="translate(98.7379561427233 65.34290544106591) rotate(0 5.558255607448359 6.896354179611819)">
        <path d="M5.62 -0.32 C6.78 0, 8.53 1.91, 9.52 3.14 C10.52 4.37, 11.38 5.76, 11.6 7.06 C11.81 8.35, 11.73 9.7, 10.83 10.89 C9.93 12.07, 7.56 13.78, 6.19 14.18 C4.81 14.59, 3.54 14.05, 2.57 13.32 C1.6 12.59, 0.65 11.39, 0.36 9.8 C0.07 8.22, 0.59 5.24, 0.85 3.81 C1.12 2.39, 0.89 1.78, 1.95 1.24 C3.01 0.71, 6.07 0.59, 7.2 0.6 C8.33 0.61, 8.71 1.17, 8.73 1.3 M4.93 -1.11 C6.27 -1.3, 8.49 -0.18, 9.47 0.86 C10.46 1.91, 10.67 3.93, 10.86 5.15 C11.04 6.37, 11.29 6.99, 10.61 8.18 C9.93 9.37, 7.63 11.62, 6.76 12.28 C5.89 12.95, 6.23 12.38, 5.39 12.14 C4.55 11.91, 2.63 11.97, 1.72 10.87 C0.8 9.77, -0.3 7.03, -0.1 5.56 C0.11 4.09, 1.91 3.09, 2.94 2.06 C3.97 1.04, 5.72 -0.3, 6.07 -0.59 C6.41 -0.89, 5.04 0.28, 5.01 0.29"
              stroke-width="1"></path>
    </g>
    <g stroke-linecap="round"
       transform="translate(85.98467770862203 19.550437577168736) rotate(0 4.377254935659948 0.8635400893479073)">
        <path d="M6.4 -0.09 C7.43 0.19, 8.25 1.26, 8.74 1.42 C9.23 1.57, 9.68 0.76, 9.34 0.84 C8.99 0.93, 7.53 1.84, 6.65 1.91 C5.77 1.98, 4.88 1.19, 4.05 1.26 C3.23 1.33, 2.35 2.35, 1.69 2.33 C1.03 2.31, 0.07 1.54, 0.09 1.14 C0.12 0.75, 1.26 -0.01, 1.83 -0.04 C2.4 -0.07, 2.69 0.96, 3.51 0.95 C4.34 0.93, 6.15 -0.17, 6.77 -0.13 C7.39 -0.1, 7.3 0.99, 7.23 1.13 M5.1 0.07 C6.13 -0.23, 7.94 -0.87, 8.53 -0.51 C9.11 -0.15, 8.67 2.01, 8.6 2.22 C8.52 2.44, 8.82 0.82, 8.06 0.78 C7.3 0.73, 5 2.02, 4.06 1.93 C3.11 1.85, 2.81 0.16, 2.39 0.25 C1.97 0.33, 1.83 2.36, 1.53 2.44 C1.24 2.52, 0.58 1.13, 0.63 0.74 C0.68 0.36, 0.76 0.16, 1.83 0.15 C2.9 0.13, 6.22 0.65, 7.06 0.66 C7.89 0.67, 6.83 0.48, 6.86 0.22"
              stroke-width="1"></path>
    </g>
    <g stroke-linecap="round"
       transform="translate(99.68221016034704 18.954892687963365) rotate(0 5.508790225150392 1.0124263116492784)">
        <path d="M4.83 -0.97 C5.92 -0.93, 8.04 -0.38, 8.98 -0.21 C9.93 -0.03, 10.15 -0.27, 10.48 0.09 C10.81 0.44, 11.3 1.45, 10.97 1.92 C10.65 2.38, 9.73 2.85, 8.53 2.87 C7.33 2.89, 4.94 2.2, 3.78 2.01 C2.63 1.83, 2.15 1.82, 1.61 1.75 C1.07 1.68, 0.41 1.92, 0.53 1.59 C0.65 1.26, 1.34 -0.12, 2.31 -0.23 C3.27 -0.34, 5.78 0.98, 6.32 0.92 C6.87 0.87, 5.9 -0.3, 5.6 -0.54 M5.02 0.51 C5.91 0.9, 6.85 1.69, 7.74 1.55 C8.64 1.4, 9.73 -0.38, 10.39 -0.33 C11.04 -0.29, 11.9 1.6, 11.66 1.82 C11.41 2.03, 10.2 1.16, 8.91 0.95 C7.61 0.74, 5.05 0.18, 3.87 0.55 C2.69 0.92, 2.23 2.95, 1.83 3.15 C1.43 3.35, 1.82 2.09, 1.46 1.74 C1.11 1.4, -0.55 1.38, -0.29 1.08 C-0.03 0.79, 2.07 0.08, 3.01 -0.04 C3.96 -0.15, 5.22 0.12, 5.38 0.39"
              stroke-width="1"></path>
    </g>
    <g stroke-linecap="round"
       transform="translate(91.58279966715304 27.828511537124427) rotate(0 6.074557869895557 0.923094578268433)">
        <path d="M7.89 -0.08 C9.16 0.12, 9.95 0.75, 10.55 0.99 C11.15 1.22, 11.54 1.36, 11.49 1.31 C11.43 1.26, 10.96 0.47, 10.21 0.68 C9.46 0.9, 8.31 2.26, 6.97 2.61 C5.62 2.95, 3.1 2.97, 2.16 2.72 C1.21 2.48, 1.68 1.48, 1.32 1.12 C0.96 0.75, -0.26 0.63, -0.01 0.53 C0.24 0.43, 1.51 0.67, 2.84 0.52 C4.16 0.36, 7.11 -0.49, 7.94 -0.41 C8.77 -0.33, 7.85 1, 7.83 1.01 M4.33 -0.83 C5.54 -1.2, 8.27 -0.73, 9.48 -0.45 C10.69 -0.18, 11.03 0.58, 11.6 0.82 C12.16 1.06, 13.26 0.98, 12.88 0.98 C12.51 0.98, 10.98 0.88, 9.33 0.82 C7.68 0.77, 4.26 0.79, 2.99 0.66 C1.71 0.53, 2.09 0.08, 1.68 0.05 C1.27 0.02, 0.38 0.68, 0.51 0.48 C0.63 0.28, 1.44 -0.91, 2.44 -1.16 C3.44 -1.41, 6.15 -1.05, 6.49 -1.03 C6.84 -1, 4.75 -1.19, 4.5 -1.02"
              stroke-width="1"></path>
    </g>
    <g stroke-linecap="round">
        <g transform="translate(150.1698125699204 48.89081377031948) rotate(0 6.406174444716726 -11.30947052436278)">
            <path d="M-0.24 -0.73 C-1.36 -3.21, -6.17 -10.21, -5.73 -13.75 C-5.29 -17.29, 0.4 -21.82, 2.41 -21.97 C4.41 -22.13, 4.38 -15.25, 6.3 -14.69 C8.23 -14.12, 12.03 -19.71, 13.95 -18.58 C15.86 -17.45, 20.21 -11.16, 17.78 -7.91 C15.35 -4.65, 2.2 -0.24, -0.65 0.96 M-1.82 1.51 C-3.18 -0.77, -7.24 -11, -6.59 -15.27 C-5.94 -19.54, -0.15 -24.3, 2.08 -24.12 C4.31 -23.94, 5.02 -15.12, 6.77 -14.21 C8.52 -13.3, 10.54 -19.5, 12.59 -18.66 C14.63 -17.82, 21.2 -12.32, 19.05 -9.19 C16.89 -6.06, 2.83 -1.17, -0.34 0.12"
                  stroke="#c92a2a" stroke-width="1"></path>
        </g>
    </g>
    <g stroke-linecap="round">
        <g transform="translate(50.313658295219966 47.31041936014549) rotate(309.9068996649125 5.942931312410224 -10.745751199933295)">
            <path d="M1.09 -0.68 C-0.11 -2.98, -6.66 -10.12, -6.73 -13.88 C-6.8 -17.65, -1.42 -23.15, 0.67 -23.26 C2.77 -23.38, 3.59 -15.53, 5.83 -14.6 C8.08 -13.67, 12.24 -18.97, 14.13 -17.68 C16.02 -16.38, 19.55 -9.73, 17.2 -6.84 C14.84 -3.95, 2.83 -1.32, -0.02 -0.35 M0.2 1.58 C-0.67 -1.02, -4.95 -11.48, -4.46 -15.48 C-3.98 -19.48, 1.34 -22.67, 3.1 -22.43 C4.85 -22.2, 4.43 -14.93, 6.05 -14.08 C7.68 -13.22, 10.85 -18.37, 12.87 -17.28 C14.89 -16.2, 20.2 -10.74, 18.16 -7.56 C16.12 -4.38, 3.79 0.23, 0.61 1.77"
                  stroke="#c92a2a" stroke-width="1"></path>
        </g>
    </g>
    <g stroke-linecap="round">
        <g transform="translate(15.119076342746666 122.85000989228342) rotate(0 7.042997514417607 -11.213585820217247)">
            <path d="M-0.87 1.13 C-1.49 -1.52, -5.15 -11.98, -4.76 -16.09 C-4.37 -20.19, -0.38 -24.09, 1.45 -23.5 C3.29 -22.9, 4.13 -13.31, 6.26 -12.53 C8.39 -11.75, 12.2 -19.62, 14.25 -18.8 C16.3 -17.99, 20.91 -10.9, 18.55 -7.65 C16.18 -4.41, 3.05 -0.7, 0.05 0.69 M0.88 0.68 C0.28 -1.85, -5.08 -11.27, -5.12 -15.18 C-5.16 -19.09, -1.34 -22.89, 0.63 -22.79 C2.6 -22.69, 4.63 -15.21, 6.7 -14.58 C8.77 -13.95, 11.41 -19.96, 13.05 -19 C14.69 -18.04, 18.61 -11.92, 16.56 -8.8 C14.5 -5.69, 3.5 -1.87, 0.72 -0.3"
                  stroke="#c92a2a" stroke-width="1"></path>
        </g>
    </g>
</svg>
