<svg version="1.1" xmlns="http://www.w3.org/2000/svg" viewBox="0 0 294.6823252299064 415.921779725524"
     stroke="#000000" width="294.6823252299064" height="415.921779725524">

    <g stroke-linecap="round"
       transform="translate(115.89510277643853 12.91500539530341) rotate(0 31.83950981692965 43.07102696091084)">
        <path d="M22.62 2.52 C28.11 -0.6, 35.52 -0.2, 41.19 2.37 C46.85 4.94, 52.74 11.11, 56.6 17.94 C60.47 24.78, 64.08 35.1, 64.38 43.35 C64.68 51.6, 62.2 60.71, 58.41 67.46 C54.61 74.21, 47.54 80.96, 41.61 83.85 C35.68 86.73, 28.72 87.46, 22.82 84.75 C16.91 82.05, 9.97 74.51, 6.19 67.62 C2.4 60.72, 0.04 51.57, 0.12 43.37 C0.19 35.16, 1.67 25.45, 6.63 18.39 C11.6 11.34, 24.96 3.78, 29.9 1.04 C34.83 -1.7, 36.11 1.29, 36.25 1.93 M44.42 2.7 C49.97 5.32, 54.49 12.51, 57.77 20.09 C61.05 27.67, 64.51 39.48, 64.08 48.19 C63.66 56.91, 59.29 66.09, 55.22 72.38 C51.16 78.67, 45.92 84.45, 39.67 85.93 C33.42 87.41, 23.77 84.49, 17.75 81.23 C11.72 77.98, 6.26 73.18, 3.53 66.38 C0.81 59.58, 0.79 49.08, 1.39 40.43 C1.99 31.78, 3.07 20.96, 7.15 14.46 C11.24 7.97, 19.86 3.31, 25.91 1.44 C31.97 -0.44, 40.43 2.88, 43.5 3.22 C46.57 3.56, 44.52 2.51, 44.33 3.46"
               stroke-width="1" fill="none"></path>
    </g>
    <g stroke-linecap="round">
        <g transform="translate(145.1746345669751 98.54814799807832) rotate(0 -1.5046710515830455 88.61558454651791)">
            <path d="M0.96 -0.77 C0.51 28.8, -2.42 148.26, -2.83 178 M0.01 1.44 C-0.62 30.61, -3.67 147.25, -3.97 176.26"
                   stroke-width="1" fill="none"></path>
        </g>
    </g>
    <g stroke-linecap="round">
        <g transform="translate(17.15403016520463 406.2899855023347) rotate(0 66.45817224621146 -65.77119770220162)">
            <path d="M-0.77 -0.37 C21.41 -22.12, 111.33 -107.79, 133.68 -129.54 M1.03 -1.61 C23.06 -23.77, 111.16 -109.81, 133.12 -131.17"
                   stroke-width="1" fill="none"></path>
        </g>
    </g>
    <g stroke-linecap="round">
        <g transform="translate(283.0429777688821 401.36611610226663) rotate(0 -69.10402584077644 -64.39053179246824)">
            <path d="M-0.37 0.74 C-23.76 -20.4, -116 -106.22, -139.39 -127.61 M1.64 0.08 C-21.91 -21.36, -115.96 -107.88, -139.85 -129.52"
                   stroke-width="1" fill="none"></path>
        </g>
    </g>
    <g stroke-linecap="round">
        <g transform="translate(152.56043866707728 165.0203848989977) rotate(0 56.662693635285336 17.895994032168943)">
            <path d="M0.74 0.94 C19.81 6.68, 94.84 28.67, 113.66 34.08 M-0.33 0.39 C18.68 6.33, 94.02 29.78, 112.92 35.41"
                   stroke-width="1" fill="none"></path>
        </g>
    </g>
    <g stroke-linecap="round">
        <g transform="translate(49.15918126564725 246.26423000012136) rotate(0 45.335670512205866 -39.944047895279056)">
            <path d="M0.94 0.41 C16.12 -12.78, 75.85 -65.26, 90.7 -78.38 M-0.03 -0.42 C14.99 -14.04, 74.15 -66.96, 89.55 -80.3"
                   stroke-width="1" fill="none"></path>
        </g>
    </g>
</svg>
