<svg version="1.1" xmlns="http://www.w3.org/2000/svg" viewBox="0 0 127.96694851953544 172.0559524136193"
     fill="none" stroke="#000000" width="127.96694851953544" height="172.0559524136193">
    <g fill-opacity="0.1" stroke-linecap="round"
       transform="translate(43.90203998514107 10) rotate(0 17.01641955475384 12.501492686795757)">
        <path d="M24.07 1.43 C27.37 2.37, 31.17 5.39, 32.69 7.81 C34.22 10.23, 34.05 13.6, 33.21 15.95 C32.37 18.31, 30.55 20.59, 27.64 21.95 C24.74 23.3, 19.53 24.16, 15.78 24.09 C12.03 24.02, 7.61 23.4, 5.14 21.51 C2.66 19.63, 1.26 15.34, 0.92 12.8 C0.59 10.27, 1.31 8.34, 3.12 6.3 C4.92 4.26, 8.23 1.27, 11.76 0.56 C15.28 -0.15, 21.98 1.62, 24.25 2.04 C26.53 2.46, 25.24 2.99, 25.41 3.07 M24.73 0.19 C27.51 0.96, 29.1 4.22, 30.73 6.6 C32.35 8.97, 34.9 11.61, 34.49 14.46 C34.07 17.3, 31.25 22.07, 28.26 23.64 C25.27 25.21, 20.29 24.08, 16.56 23.9 C12.82 23.71, 8.48 24.42, 5.86 22.53 C3.24 20.64, 1.46 15.13, 0.84 12.54 C0.23 9.95, 0.15 8.76, 2.17 6.99 C4.2 5.23, 9.25 2.99, 13 1.95 C16.75 0.92, 22.86 0.78, 24.67 0.79 C26.48 0.79, 24.34 1.89, 23.84 2"
              stroke-width="1" ></path>
    </g>
    <g stroke-linecap="round">
        <g fill-opacity="0.1"
           transform="translate(61.91995222669084 37.00895612077488) rotate(0 -0.14891464816400912 36.525817225025975)">
            <path d="M-0.41 1.01 C-0.64 13.22, -0.87 60.66, -0.95 72.56 M1.58 0.49 C1.15 12.41, -1.35 59.1, -1.88 70.73"
                  stroke-width="1"></path>
        </g>
    </g>
    <g stroke-linecap="round">
        <g fill-opacity="0.1"
           transform="translate(9.919952226690839 162.00895612077488) rotate(0 27.31904983302593 -26.415044566616416)">
            <path d="M1.01 0.05 C10.22 -8.7, 45.66 -44.11, 54.56 -52.88 M0.08 -0.97 C9.24 -9.47, 44.94 -42.33, 53.9 -51.28"
                  stroke-width="1"></path>
        </g>
    </g>
    <g stroke-linecap="round">
        <g fill-opacity="0.1"
           transform="translate(117.91995222669084 160.00895612077488) rotate(0 -28.856802222775286 -26.470095586283122)">
            <path d="M0.05 0.56 C-9.36 -8.21, -47.44 -42.99, -56.88 -51.59 M-1.39 -0.19 C-10.91 -8.81, -48.48 -44.71, -57.76 -53.5"
                  stroke-width="1"></path>
        </g>
    </g>
    <g stroke-linecap="round">
        <g fill-opacity="0.1"
           transform="translate(64.91995222669084 64.00895612077488) rotate(0 22.900644116159583 6.792131136599934)">
            <path d="M0.56 0.12 C8.12 2.52, 38.68 12.19, 46.41 14.44 M-0.61 -0.86 C6.75 1.17, 37.8 9.95, 45.68 12.55"
                  stroke-width="1"></path>
        </g>
    </g>
    <g stroke-linecap="round">
        <g fill-opacity="0.1"
           transform="translate(22.91995222669084 97.00895612077488) rotate(0 18.085363744599817 -16.149062111331148)">
            <path d="M0.12 0.41 C6.36 -4.86, 31.36 -25.75, 37.44 -31.07 M-1.27 -0.42 C4.84 -6.07, 30.57 -27.18, 36.73 -32.71"
                  stroke-width="1"></path>
        </g>
    </g>
</svg>
