<svg version="1.1" xmlns="http://www.w3.org/2000/svg" viewBox="0 0 148.7959968718983 182.7936728006561"
     stroke="#000000" fill="none" width="148.7959968718983" height="182.7936728006561">
    <g stroke-linecap="round"
       transform="translate(16.812052785241576 146.90319724462262) rotate(204.53349383747923 17.01641955475384 12.501492686795757)">
        <path d="M18.57 0.41 C21.87 0.53, 25.27 1.69, 27.98 3.53 C30.69 5.37, 34.46 8.96, 34.85 11.44 C35.24 13.92, 32.33 16.23, 30.32 18.43 C28.31 20.62, 26.05 23.54, 22.76 24.62 C19.47 25.7, 13.95 25.99, 10.58 24.91 C7.22 23.82, 4.22 20.59, 2.6 18.1 C0.99 15.62, 0.11 12.66, 0.91 10 C1.72 7.35, 4.38 3.94, 7.42 2.15 C10.46 0.37, 16.61 -0.41, 19.14 -0.71 C21.67 -1, 22.48 -0.1, 22.6 0.39 M14.37 0.21 C17.74 -0.2, 21.84 0.37, 24.77 1.87 C27.71 3.37, 30.39 6.63, 31.98 9.22 C33.58 11.81, 35.46 14.95, 34.35 17.41 C33.24 19.87, 28.63 22.9, 25.32 23.98 C22.01 25.07, 18.12 24.48, 14.5 23.92 C10.89 23.36, 6.19 22.38, 3.66 20.61 C1.12 18.84, -0.63 15.79, -0.73 13.29 C-0.83 10.8, 0.56 7.83, 3.06 5.64 C5.56 3.44, 12.3 0.82, 14.27 0.13 C16.25 -0.57, 15.05 1.02, 14.91 1.47"
               stroke-width="1"></path>
    </g>
    <g stroke-linecap="round">
        <g transform="translate(55.325624069054356 77.99250714363103) rotate(204.53349383747923 0.09885135669946976 35.72669999079778)">
            <path d="M-0.42 0.13 C-0.35 11.84, -0.64 59.13, -0.61 71.19 M1.55 -0.84 C1.6 10.92, -0.99 60.43, -1.36 72.3"
                   stroke-width="1"></path>
        </g>
    </g>
    <g stroke-linecap="round">
        <g transform="translate(74.94491697212379 93.36318731855573) rotate(204.53349383747923 27.107197241373342 -26.800811962392174)">
            <path d="M0.13 0.39 C8.84 -8.25, 44.13 -43.22, 53.19 -52.26 M-1.26 -0.46 C7.75 -9.4, 46.27 -45.25, 55.47 -53.99"
                   stroke-width="1"></path>
        </g>
    </g>
    <g stroke-linecap="round">
        <g transform="translate(81.9282835574295 72.29377161694725) rotate(204.53349383747923 -28.21354731981637 -26.018822626005857)">
            <path d="M0.39 -0.81 C-8.92 -9.42, -46.56 -43.03, -56.26 -51.53 M-0.87 1.37 C-10.23 -7.61, -47.74 -44.78, -56.81 -53.41"
                   stroke-width="1"></path>
        </g>
    </g>
    <g stroke-linecap="round">
        <g transform="translate(6.1892691633729555 95.80379331917408) rotate(204.53349383747923 22.826404407247992 7.195802604667847)">
            <path d="M-0.81 0.74 C6.91 2.88, 38.63 10.79, 46.47 13.19 M0.96 0.09 C8.55 2.32, 38.34 12.09, 45.76 14.3"
                   stroke-width="1"></path>
        </g>
    </g>
    <g stroke-linecap="round">
        <g transform="translate(56.58968651988471 130.13933091997188) rotate(204.53349383747923 19.076299855243406 -15.675802097097062)">
            <path d="M0.74 0.47 C6.71 -4.7, 29.96 -26.49, 36.19 -31.82 M-0.33 -0.34 C5.99 -5.21, 32.1 -24.65, 38.48 -30.18"
                   stroke-width="1"></path>
        </g>
    </g>
    <g stroke-linecap="round">
        <g transform="translate(21.910859452723344 159.8734737601613) rotate(0 3.2003457034165876 2.568986257495368)">
            <path d="M1.09 0.92 C2.09 1.67, 5.27 4.11, 6.2 4.78 M0.21 0.36 C1.03 0.72, 4.23 2.51, 5.22 2.95"
                   stroke-width="1"></path>
        </g>
    </g>
    <g stroke-linecap="round">
        <g transform="translate(33.9386959875701 166.59031753936148) rotate(0 5.408229416528002 -0.5729768814476159)">
            <path d="M0.92 -0.05 C2.68 -0.17, 9.18 0.48, 10.87 0.42 M-0.05 -1.13 C1.57 -1.09, 8.43 -1.79, 10.21 -1.49"
                   stroke-width="1"></path>
        </g>
    </g>
    <g stroke-linecap="round">
        <g transform="translate(27.06564653908663 153.7814526580956) rotate(0 8.395986327725723 2.85004473805094)">
            <path d="M-0.05 0.56 C1.74 0.65, 8.75 0.56, 11.82 1.44 C14.88 2.32, 17.36 4.83, 18.33 5.85 M-1.54 -0.19 C0.03 -0.53, 7.94 -1.42, 11.09 -0.3 C14.24 0.82, 16.31 5.62, 17.35 6.55"
                   stroke-width="1"></path>
        </g>
    </g>
</svg>
