<svg version="1.1" xmlns="http://www.w3.org/2000/svg" viewBox="0 0 137.21769997811657 179.11589823315921"
     stroke="#000000" fill="none" width="137.21769997811657" height="179.11589823315921">
    <g stroke-linecap="round"
       transform="translate(72.87359120167866 10.224340135008788) rotate(11.892313702725984 17.01641955475384 12.501492686795757)">
        <path d="M9.39 1.09 C12.32 -0.23, 18.06 -0.84, 21.48 -0.18 C24.9 0.48, 27.7 2.85, 29.93 5.06 C32.16 7.28, 35 10.26, 34.86 13.1 C34.71 15.94, 31.79 20.26, 29.04 22.12 C26.3 23.99, 22.13 24.03, 18.38 24.3 C14.62 24.56, 9.52 25.19, 6.52 23.7 C3.52 22.22, 1.23 18.15, 0.36 15.39 C-0.51 12.63, -0.34 9.71, 1.3 7.14 C2.94 4.58, 8.45 1.13, 10.22 -0.01 C11.99 -1.15, 11.6 -0.08, 11.9 0.31 M8.6 1.86 C11.29 0.36, 16.55 -0.3, 20.13 0.13 C23.72 0.57, 27.94 2.19, 30.1 4.47 C32.26 6.74, 32.98 11.28, 33.07 13.79 C33.16 16.3, 32.72 17.66, 30.67 19.54 C28.61 21.42, 24.38 24.5, 20.73 25.09 C17.07 25.67, 12.19 24.43, 8.71 23.06 C5.23 21.7, 1.3 19.41, -0.15 16.91 C-1.6 14.4, -1.44 10.85, 0 8.06 C1.43 5.26, 6.78 1.3, 8.46 0.14 C10.14 -1.02, 9.73 0.6, 10.08 1.1"
              stroke-width="1"></path>
    </g>
    <g stroke-linecap="round">
        <g transform="translate(80.43647224464712 36.29759580958694) rotate(11.892313702725984 -0.26587650148508146 36.150539743448604)">
            <path d="M-1.08 -1.06 C-1.14 10.93, 0.04 59.73, -0.02 71.88 M0.55 1 C0.39 13.19, 0.04 61.34, -0.46 73.36"
                  stroke-width="1"></path>
        </g>
    </g>
    <g stroke-linecap="round">
        <g transform="translate(16.07552491144793 154.73543302889846) rotate(11.892313702725984 26.41244787275798 -26.22873410284518)">
            <path d="M-1.06 0.98 C7.93 -7.75, 44.73 -44.47, 53.88 -53.44 M0.59 0.45 C9.41 -8.02, 44.13 -43.48, 52.87 -52.13"
                  stroke-width="1"></path>
        </g>
    </g>
    <g stroke-linecap="round">
        <g transform="translate(123.3334340808442 163.65064588359348) rotate(11.892313702725984 -28.817217575381505 -26.12387844026088)">
            <path d="M0.98 -0.12 C-8.41 -8.63, -47.8 -43.37, -57.44 -52.13 M0.03 -1.22 C-9.46 -9.45, -49.02 -42.24, -58.61 -50.66"
                  stroke-width="1"></path>
        </g>
    </g>
    <g stroke-linecap="round">
        <g transform="translate(83.32698498307468 68.5734364267563) rotate(11.892313702725984 22.11593144014944 7.0382211571838695)">
            <path d="M-0.12 -0.44 C7.7 1.76, 38.3 11.95, 45.87 14.16 M-1.64 -1.71 C6.11 0.62, 36.61 13.25, 44.85 15.79"
                  stroke-width="1"></path>
        </g>
    </g>
    <g stroke-linecap="round">
        <g transform="translate(40.34256220060661 91.94035279765058) rotate(11.892313702725984 18.363810166716576 -16.4194424241781)">
            <path d="M-0.44 -0.13 C5.59 -5.56, 31.12 -27.35, 37.16 -32.71 M1.54 -1.25 C7.34 -6.52, 30.21 -26.57, 36.3 -31.54"
                  stroke-width="1"></path>
        </g>
    </g>
    <g stroke-linecap="round"
       transform="translate(79.33067971003834 14.672051030724163) rotate(0 2.8594277346825265 3.291039468219566)">
        <path d="M2.07 -0.74 C2.6 -0.78, 2.74 0.56, 3.36 1.11 C3.97 1.66, 5.37 2.1, 5.75 2.56 C6.13 3.03, 5.94 3.26, 5.63 3.88 C5.31 4.51, 4.54 5.82, 3.85 6.32 C3.16 6.82, 1.91 7.12, 1.49 6.89 C1.06 6.67, 1.7 5.68, 1.3 4.97 C0.89 4.27, -0.88 3.36, -0.94 2.65 C-1 1.94, 0.23 1.08, 0.93 0.7 C1.64 0.32, 3.09 0.33, 3.29 0.35 C3.48 0.37, 2.35 0.68, 2.1 0.81 M2 1.34 C2.32 0.93, 1.39 -0.82, 1.99 -0.96 C2.58 -1.09, 4.73 -0.14, 5.58 0.54 C6.43 1.22, 7.17 2.51, 7.08 3.12 C6.99 3.73, 5.76 3.48, 5.04 4.19 C4.32 4.91, 3.17 7.32, 2.73 7.41 C2.29 7.5, 2.98 5.42, 2.39 4.73 C1.8 4.05, -0.28 3.93, -0.81 3.29 C-1.34 2.64, -1.19 1.39, -0.8 0.87 C-0.41 0.36, 0.94 0.46, 1.53 0.22 C2.12 -0.02, 2.88 -0.68, 2.75 -0.55"
              stroke-width="1"></path>
    </g>
    <g stroke-linecap="round"
       transform="translate(90.98419651553718 23.412188634848235) rotate(0 3.6147482683722956 3.7766026684486746)">
        <path d="M5.95 -0.44 C6.51 -0.35, 6.09 0.92, 6.41 1.95 C6.72 2.97, 8.06 4.96, 7.84 5.72 C7.62 6.48, 5.71 6.31, 5.09 6.51 C4.48 6.71, 4.74 6.79, 4.16 6.9 C3.58 7.01, 2.34 7.71, 1.62 7.16 C0.9 6.61, 0.06 4.7, -0.15 3.61 C-0.37 2.53, -0.23 1.17, 0.31 0.65 C0.85 0.14, 2.2 0.37, 3.06 0.5 C3.92 0.64, 4.99 1.11, 5.47 1.45 C5.96 1.79, 6.07 2.43, 5.95 2.54 M3.24 1.27 C3.86 1.21, 3.89 -0.26, 4.31 -0.08 C4.73 0.09, 5.33 1.16, 5.77 2.3 C6.2 3.45, 7.08 6.03, 6.92 6.77 C6.76 7.51, 5.38 6.88, 4.83 6.76 C4.29 6.63, 4.52 6.04, 3.65 6.02 C2.77 5.99, 0.4 7.18, -0.41 6.6 C-1.22 6.03, -1.66 3.63, -1.22 2.59 C-0.79 1.54, 1.51 0.83, 2.19 0.33 C2.87 -0.18, 2.88 -0.54, 2.87 -0.43 C2.87 -0.33, 2.03 0.89, 2.16 0.96"
              stroke-width="1"></path>
    </g>
    <g stroke-linecap="round">
        <g transform="translate(78.0358445094273 23.735897435000993) rotate(0 3.63479917191853 3.075878191874466)">
            <path d="M-0.8 -0.07 C0.56 1.01, 6.8 4.9, 8.07 5.97 M0.99 -1.15 C2.28 0.14, 6.8 5.82, 7.61 7.3"
                  stroke-width="1"></path>
        </g>
    </g>
</svg>
